<?xml version="1.0" encoding="UTF-8" standalone="no"?>
<svg
   xmlns:dc="http://purl.org/dc/elements/1.1/"
   xmlns:cc="http://creativecommons.org/ns#"
   xmlns:rdf="http://www.w3.org/1999/02/22-rdf-syntax-ns#"
   xmlns:svg="http://www.w3.org/2000/svg"
   xmlns="http://www.w3.org/2000/svg"
   id="svg8"
   version="1.1"
   viewBox="0 0 210 297"
   height="297mm"
   width="210mm">
  <defs
     id="defs2" />
  <metadata
     id="metadata5">
    <rdf:RDF>
      <cc:Work
         rdf:about="">
        <dc:format>image/svg+xml</dc:format>
        <dc:type
           rdf:resource="http://purl.org/dc/dcmitype/StillImage" />
        <dc:title></dc:title>
      </cc:Work>
    </rdf:RDF>
  </metadata>
  <g
     id="layer1">
    <g
       transform="matrix(1.2221061,0,0,1.2221061,-5.0477564,-5.7482375)"
       id="g49">
      <g
         aria-label="P"
         style="font-style:normal;font-weight:normal;font-size:208.54496765px;line-height:1.25;font-family:sans-serif;letter-spacing:0px;word-spacing:0px;fill:#000000;fill-opacity:1;stroke:none;stroke-width:5.213624"
         id="text12">
        <path
           style="font-style:normal;font-variant:normal;font-weight:bold;font-stretch:normal;font-size:208.54496765px;font-family:Signika;-inkscape-font-specification:'Signika, Bold';font-variant-ligatures:normal;font-variant-caps:normal;font-variant-numeric:normal;font-feature-settings:normal;text-align:start;writing-mode:lr-tb;text-anchor:start;stroke-width:19.70503616"
           d="m 274.27734,97.816406 c -15.76403,0 -38.8842,0.263595 -69.36132,0.789063 -29.95166,0.525465 -67.78627,1.312346 -113.501958,2.363281 l -5.517578,5.51758 v 534.40039 c 16.289496,3.15281 37.308726,4.73047 63.056636,4.73047 25.22245,0 46.24168,-1.57766 63.05665,-4.73047 V 472.21289 h 34.30664 V 376.8418 c -8.37791,0.007 -19.79251,0.26874 -34.30664,0.78711 V 193.97656 c 7.35654,0.52547 15.76424,0.78906 25.22265,0.78906 h 32.31641 c 12.08575,0 22.59439,2.62814 31.52734,7.88282 8.93295,4.72921 16.02657,11.29759 21.28125,19.70508 0.53268,0.7748 1.03707,1.57202 1.54297,2.36914 14.82347,-0.3014 29.22993,-0.59056 41.43555,-0.80469 30.47711,-0.52547 53.59729,-0.78711 69.36133,-0.78711 8.64853,0 17.05639,0.36057 25.23437,1.06641 -1.88883,-6.93408 -4.12455,-13.59784 -6.73242,-19.97266 -8.93297,-23.64604 -21.80808,-43.35121 -38.62305,-59.11523 -16.81497,-15.76403 -37.30701,-27.58674 -61.47851,-35.46876 -23.64605,-7.88201 -49.9196,-11.824214 -78.82032,-11.824214 z m 185.6543,126.380864 c 4.96169,18.21485 7.45508,38.34987 7.45508,60.42382 0,15.75086 -1.27453,30.58149 -3.80078,44.50782 7.95365,4.62241 14.35445,10.79798 19.1914,18.53711 5.78016,8.40748 9.98401,18.12924 12.61133,29.16406 2.62735,11.03483 3.94141,22.33231 3.94141,33.89258 0,12.08577 -1.31406,23.64487 -3.94141,34.67968 -2.62732,11.03484 -6.83117,20.75658 -12.61133,29.16407 -5.78013,7.882 -13.399,14.4504 -22.85742,19.70507 -9.45842,4.72923 -21.28113,7.09375 -35.46875,7.09375 -2.62735,0 -8.40886,0.26361 -17.34179,0.78907 -8.40749,0 -19.96659,0.26163 -34.67969,0.78711 v -50.81836 c -6.39982,3.06244 -13.10071,5.82375 -20.1211,8.26562 -23.64604,7.88201 -49.65599,11.82422 -78.03125,11.82422 h -27.96093 v 293.98828 c 16.28949,3.15281 37.30872,4.72852 63.05664,4.72852 25.22244,0 46.24168,-1.57571 63.05664,-4.72852 V 597.52539 h 62.26758 c 28.37525,0 54.38521,-3.94026 78.03125,-11.82227 24.17151,-8.40748 44.6655,-20.49378 61.48046,-36.25781 16.81497,-15.76403 29.95174,-35.20559 39.41016,-58.32617 9.45842,-23.64603 14.1875,-50.70842 14.1875,-81.18555 0,-30.47712 -4.72908,-57.27591 -14.1875,-80.39648 -8.93296,-23.64605 -21.8081,-43.35121 -38.62305,-59.11523 -16.81496,-15.76403 -37.307,-27.58674 -61.47851,-35.46876 -16.56998,-5.52332 -34.43566,-9.103 -53.58594,-10.75585 z m -87.50195,227.92578 c 15.63505,-7.48169 29.42815,-16.80472 41.35937,-27.99024 16.81497,-15.76403 29.95174,-35.20755 39.41016,-58.32812 4.57021,-11.42556 8.02479,-23.65535 10.38672,-36.67578 -0.68688,-0.3992 -1.37972,-0.79202 -2.08985,-1.16797 -8.93293,-5.25468 -19.44157,-7.88281 -31.52734,-7.88282 h -32.31641 c -9.45842,0 -17.8661,-0.26164 -25.22265,-0.7871 z m -48.5293,-227.40039 c -21.55219,0.4382 -44.98035,0.93788 -72.06641,1.56054 l -5.51757,5.51758 V 376.8418 c 0.11484,-10e-5 0.25935,-0.002 0.37304,-0.002 8.93295,-0.52546 14.71446,-0.78711 17.3418,-0.78711 14.18763,0 26.01033,-2.36454 35.46875,-7.09375 9.45842,-5.25467 17.07728,-11.82306 22.85742,-19.70507 5.78014,-8.40748 9.98399,-18.12924 12.61133,-29.16407 2.62734,-11.03482 3.94141,-22.59588 3.94141,-34.68164 0,-11.56028 -1.31407,-22.85775 -3.94141,-33.89258 -2.38521,-10.01788 -6.08467,-18.94047 -11.06836,-26.79296 z"
           transform="scale(0.26458333)"
           id="path42" />
      </g>
      <g
         aria-label="P"
         style="font-style:normal;font-weight:normal;font-size:208.54496765px;line-height:1.25;font-family:sans-serif;letter-spacing:0px;word-spacing:0px;fill:#000000;fill-opacity:1;stroke:none;stroke-width:5.213624"
         id="text12-1" />
    </g>
  </g>
</svg>
