<?xml version="1.0" encoding="UTF-8" standalone="no"?>
<!-- Created with Inkscape (http://www.inkscape.org/) -->

<svg
   xmlns:dc="http://purl.org/dc/elements/1.1/"
   xmlns:cc="http://creativecommons.org/ns#"
   xmlns:rdf="http://www.w3.org/1999/02/22-rdf-syntax-ns#"
   xmlns:svg="http://www.w3.org/2000/svg"
   xmlns="http://www.w3.org/2000/svg"
   xmlns:sodipodi="http://sodipodi.sourceforge.net/DTD/sodipodi-0.dtd"
   xmlns:inkscape="http://www.inkscape.org/namespaces/inkscape"
   width="210mm"
   height="297mm"
   viewBox="0 0 210 297"
   version="1.1"
   id="svg8"
   inkscape:version="0.92.4 (5da689c313, 2019-01-14)"
   sodipodi:docname="PP Logo.svg">
  <defs
     id="defs2" />
  <sodipodi:namedview
     id="base"
     pagecolor="#ffffff"
     bordercolor="#666666"
     borderopacity="1.0"
     inkscape:pageopacity="0.0"
     inkscape:pageshadow="2"
     inkscape:zoom="0.35"
     inkscape:cx="-108.6677"
     inkscape:cy="541.80073"
     inkscape:document-units="mm"
     inkscape:current-layer="layer1"
     showgrid="false"
     inkscape:window-width="1366"
     inkscape:window-height="700"
     inkscape:window-x="-8"
     inkscape:window-y="-8"
     inkscape:window-maximized="1" />
  <metadata
     id="metadata5">
    <rdf:RDF>
      <cc:Work
         rdf:about="">
        <dc:format>image/svg+xml</dc:format>
        <dc:type
           rdf:resource="http://purl.org/dc/dcmitype/StillImage" />
        <dc:title></dc:title>
      </cc:Work>
    </rdf:RDF>
  </metadata>
  <g
     inkscape:label="Layer 1"
     inkscape:groupmode="layer"
     id="layer1">
    <g
       aria-label="P"
       transform="matrix(5.709147,0,0,5.709147,-275.14903,-395.13808)"
       style="font-style:normal;font-weight:normal;font-size:40px;line-height:1.25;font-family:sans-serif;letter-spacing:0px;word-spacing:0px;fill:#000000;fill-opacity:1;stroke:none"
       id="flowRoot3713"
       inkscape:export-xdpi="188.23999"
       inkscape:export-ydpi="188.23999">
      <path
         style="font-style:normal;font-variant:normal;font-weight:bold;font-stretch:normal;font-size:40px;font-family:sans-serif;-inkscape-font-specification:'sans-serif, Bold';font-variant-ligatures:normal;font-variant-caps:normal;font-variant-numeric:normal;font-feature-settings:normal;text-align:start;writing-mode:lr-tb;text-anchor:start;stroke-width:7.63148785"
         d="M 70.853516,99.931641 V 391.87109 H 128.08984 V 249.58008 h 26.03125 v -41.96094 c -2.99951,0.14805 -6.20344,0.22656 -9.63476,0.22656 h -16.39649 v -66.47851 h 9.83789 c 9.43999,0 16.99226,0.14918 22.65625,0.44726 5.664,0.19873 11.47736,1.49016 17.43946,3.875 4.47157,1.78863 8.39686,4.96812 11.77539,9.53907 2.20226,2.91476 3.67272,6.21782 4.43945,9.89257 h 54.08399 c 1.91053,0 3.77301,0.0267 5.60156,0.0723 -0.5287,-10.78346 -2.87497,-20.16726 -7.03906,-28.14844 -4.67031,-9.14189 -11.47678,-16.64313 -20.41993,-22.50586 -7.45262,-4.86905 -16.04706,-8.49602 -25.78515,-10.88086 -9.63873,-2.48421 -21.51469,-3.726559 -35.625,-3.726559 z M 253.92383,165.19336 c 0.0769,1.56824 0.11523,3.16546 0.11523,4.79297 0,9.93683 -1.7389,19.67353 -5.21679,29.21289 -1.01876,2.76518 -2.18055,5.38708 -3.45508,7.89648 5.18454,0.35816 10.49183,1.61236 15.92383,3.78516 4.47157,1.78863 8.39686,4.96812 11.77539,9.53906 3.37852,4.47158 5.0664,9.83746 5.0664,16.09766 0,6.35957 -0.84394,11.77451 -2.5332,16.24609 -1.58989,4.37221 -4.22376,8.14834 -7.90039,11.32813 -4.27284,3.57726 -9.58965,5.96187 -15.94922,7.15429 -6.26021,1.19238 -14.258,1.78907 -23.99609,1.78907 h -16.39649 v -33.45313 c -2.31705,1.19902 -4.68228,2.30131 -7.10156,3.29102 -10.83115,4.47158 -24.34398,6.70703 -40.54102,6.70703 h -9.59375 v 207.48047 h 57.23633 V 314.76953 h 35.62305 c 16.19704,0 29.71182,-2.23545 40.54297,-6.70703 10.93051,-4.47157 20.81832,-11.07981 29.66211,-19.82422 6.45894,-6.45894 11.42641,-14.40767 14.90429,-23.84766 3.47789,-9.53935 5.2168,-19.27801 5.2168,-29.21484 0,-12.81851 -2.38461,-23.79756 -7.1543,-32.93945 -4.67031,-9.14189 -11.47677,-16.64508 -20.41992,-22.50781 -7.45263,-4.86905 -16.04902,-8.49602 -25.78711,-10.88086 -8.33365,-2.14785 -18.34518,-3.36348 -30.02148,-3.6543 z m -42.56641,74.38867 c 8.1516,-4.21827 15.67418,-9.72421 22.56055,-16.5332 4.56697,-4.56697 8.37265,-9.89575 11.44922,-15.95313 -0.50596,-0.0349 -1.01203,-0.0722 -1.51563,-0.0898 -5.664,-0.29809 -13.21626,-0.44727 -22.65625,-0.44727 h -9.83789 z m -17.11914,-74.46094 h -40.11719 v 42.49805 c 5.51311,-0.27212 10.30893,-0.79027 14.36329,-1.5625 6.35957,-1.19242 11.67442,-3.57704 15.94726,-7.1543 3.67663,-3.17979 6.3105,-6.95591 7.90039,-11.32812 1.68926,-4.47158 2.5332,-9.88848 2.5332,-16.24805 0,-2.17953 -0.21743,-4.24235 -0.62695,-6.20508 z"
         transform="matrix(0.13103605,0,0,0.13103605,40.141308,59.693576)"
         id="path3729"
         inkscape:connector-curvature="0" />
    </g>
  </g>
</svg>
